<mxfile host="app.diagrams.net" modified="2024-04-25T18:02:26.423Z" agent="Mozilla/5.0 (Windows NT 10.0; Win64; x64) AppleWebKit/537.36 (KHTML, like Gecko) Chrome/124.0.0.0 Safari/537.36 Edg/124.0.0.0" etag="pvGWcDXGPEA8yOyBTWpj" version="24.3.0" type="github">
  <diagram id="C5RBs43oDa-KdzZeNtuy" name="Page-1">
    <mxGraphModel dx="1050" dy="611" grid="1" gridSize="10" guides="1" tooltips="1" connect="1" arrows="1" fold="1" page="1" pageScale="1" pageWidth="827" pageHeight="1169" math="0" shadow="0">
      <root>
        <mxCell id="WIyWlLk6GJQsqaUBKTNV-0" />
        <mxCell id="WIyWlLk6GJQsqaUBKTNV-1" parent="WIyWlLk6GJQsqaUBKTNV-0" />
        <mxCell id="3GEmFh6qiqjrI7cfLL0r-2" value="" style="edgeStyle=orthogonalEdgeStyle;rounded=0;orthogonalLoop=1;jettySize=auto;html=1;" edge="1" parent="WIyWlLk6GJQsqaUBKTNV-1" source="3GEmFh6qiqjrI7cfLL0r-0" target="3GEmFh6qiqjrI7cfLL0r-1">
          <mxGeometry relative="1" as="geometry" />
        </mxCell>
        <mxCell id="3GEmFh6qiqjrI7cfLL0r-0" value="Auth类开始被加载" style="strokeWidth=2;html=1;shape=mxgraph.flowchart.terminator;whiteSpace=wrap;" vertex="1" parent="WIyWlLk6GJQsqaUBKTNV-1">
          <mxGeometry x="160" y="80" width="100" height="60" as="geometry" />
        </mxCell>
        <mxCell id="3GEmFh6qiqjrI7cfLL0r-4" value="" style="edgeStyle=orthogonalEdgeStyle;rounded=0;orthogonalLoop=1;jettySize=auto;html=1;" edge="1" parent="WIyWlLk6GJQsqaUBKTNV-1" source="3GEmFh6qiqjrI7cfLL0r-1" target="3GEmFh6qiqjrI7cfLL0r-3">
          <mxGeometry relative="1" as="geometry" />
        </mxCell>
        <mxCell id="3GEmFh6qiqjrI7cfLL0r-1" value="尝试读取cookies&lt;div&gt;并获取存储的token&lt;/div&gt;" style="rounded=1;whiteSpace=wrap;html=1;strokeWidth=2;" vertex="1" parent="WIyWlLk6GJQsqaUBKTNV-1">
          <mxGeometry x="150" y="200" width="120" height="60" as="geometry" />
        </mxCell>
        <mxCell id="3GEmFh6qiqjrI7cfLL0r-6" value="Y" style="edgeStyle=orthogonalEdgeStyle;rounded=0;orthogonalLoop=1;jettySize=auto;html=1;" edge="1" parent="WIyWlLk6GJQsqaUBKTNV-1" source="3GEmFh6qiqjrI7cfLL0r-3" target="3GEmFh6qiqjrI7cfLL0r-5">
          <mxGeometry relative="1" as="geometry" />
        </mxCell>
        <mxCell id="3GEmFh6qiqjrI7cfLL0r-10" value="N" style="edgeStyle=orthogonalEdgeStyle;rounded=0;orthogonalLoop=1;jettySize=auto;html=1;" edge="1" parent="WIyWlLk6GJQsqaUBKTNV-1" source="3GEmFh6qiqjrI7cfLL0r-3" target="3GEmFh6qiqjrI7cfLL0r-11">
          <mxGeometry relative="1" as="geometry">
            <mxPoint x="210" y="500" as="targetPoint" />
          </mxGeometry>
        </mxCell>
        <mxCell id="3GEmFh6qiqjrI7cfLL0r-3" value="token是否&lt;div&gt;存在&lt;/div&gt;" style="rhombus;whiteSpace=wrap;html=1;rounded=1;strokeWidth=2;" vertex="1" parent="WIyWlLk6GJQsqaUBKTNV-1">
          <mxGeometry x="170" y="330" width="80" height="80" as="geometry" />
        </mxCell>
        <mxCell id="3GEmFh6qiqjrI7cfLL0r-8" value="" style="edgeStyle=orthogonalEdgeStyle;rounded=0;orthogonalLoop=1;jettySize=auto;html=1;" edge="1" parent="WIyWlLk6GJQsqaUBKTNV-1" source="3GEmFh6qiqjrI7cfLL0r-5" target="3GEmFh6qiqjrI7cfLL0r-7">
          <mxGeometry relative="1" as="geometry" />
        </mxCell>
        <mxCell id="3GEmFh6qiqjrI7cfLL0r-5" value="尝试使用API&lt;div&gt;进行使用token的&lt;/div&gt;&lt;div&gt;自动登录&lt;/div&gt;" style="whiteSpace=wrap;html=1;rounded=1;strokeWidth=2;" vertex="1" parent="WIyWlLk6GJQsqaUBKTNV-1">
          <mxGeometry x="310" y="340" width="120" height="60" as="geometry" />
        </mxCell>
        <mxCell id="3GEmFh6qiqjrI7cfLL0r-13" value="N" style="edgeStyle=orthogonalEdgeStyle;rounded=0;orthogonalLoop=1;jettySize=auto;html=1;" edge="1" parent="WIyWlLk6GJQsqaUBKTNV-1" source="3GEmFh6qiqjrI7cfLL0r-7" target="3GEmFh6qiqjrI7cfLL0r-12">
          <mxGeometry relative="1" as="geometry" />
        </mxCell>
        <mxCell id="3GEmFh6qiqjrI7cfLL0r-16" value="" style="edgeStyle=orthogonalEdgeStyle;rounded=0;orthogonalLoop=1;jettySize=auto;html=1;" edge="1" parent="WIyWlLk6GJQsqaUBKTNV-1" source="3GEmFh6qiqjrI7cfLL0r-7" target="3GEmFh6qiqjrI7cfLL0r-15">
          <mxGeometry relative="1" as="geometry" />
        </mxCell>
        <mxCell id="3GEmFh6qiqjrI7cfLL0r-7" value="登录是否成功" style="rhombus;whiteSpace=wrap;html=1;rounded=1;strokeWidth=2;" vertex="1" parent="WIyWlLk6GJQsqaUBKTNV-1">
          <mxGeometry x="530" y="330" width="80" height="80" as="geometry" />
        </mxCell>
        <mxCell id="3GEmFh6qiqjrI7cfLL0r-11" value="保持未登录状态" style="strokeWidth=2;html=1;shape=mxgraph.flowchart.terminator;whiteSpace=wrap;" vertex="1" parent="WIyWlLk6GJQsqaUBKTNV-1">
          <mxGeometry x="160" y="500" width="100" height="60" as="geometry" />
        </mxCell>
        <mxCell id="3GEmFh6qiqjrI7cfLL0r-14" style="edgeStyle=orthogonalEdgeStyle;rounded=0;orthogonalLoop=1;jettySize=auto;html=1;" edge="1" parent="WIyWlLk6GJQsqaUBKTNV-1" source="3GEmFh6qiqjrI7cfLL0r-12" target="3GEmFh6qiqjrI7cfLL0r-11">
          <mxGeometry relative="1" as="geometry" />
        </mxCell>
        <mxCell id="3GEmFh6qiqjrI7cfLL0r-12" value="&lt;div&gt;错误信息弹窗&lt;/div&gt;删除无效的token" style="whiteSpace=wrap;html=1;rounded=1;strokeWidth=2;" vertex="1" parent="WIyWlLk6GJQsqaUBKTNV-1">
          <mxGeometry x="510" y="500" width="120" height="60" as="geometry" />
        </mxCell>
        <mxCell id="3GEmFh6qiqjrI7cfLL0r-18" style="edgeStyle=orthogonalEdgeStyle;rounded=0;orthogonalLoop=1;jettySize=auto;html=1;" edge="1" parent="WIyWlLk6GJQsqaUBKTNV-1" source="3GEmFh6qiqjrI7cfLL0r-15" target="3GEmFh6qiqjrI7cfLL0r-17">
          <mxGeometry relative="1" as="geometry" />
        </mxCell>
        <mxCell id="3GEmFh6qiqjrI7cfLL0r-15" value="更新和记录当前用户状态" style="whiteSpace=wrap;html=1;rounded=1;strokeWidth=2;" vertex="1" parent="WIyWlLk6GJQsqaUBKTNV-1">
          <mxGeometry x="670" y="340" width="120" height="60" as="geometry" />
        </mxCell>
        <mxCell id="3GEmFh6qiqjrI7cfLL0r-17" value="成功自动登录" style="strokeWidth=2;html=1;shape=mxgraph.flowchart.terminator;whiteSpace=wrap;" vertex="1" parent="WIyWlLk6GJQsqaUBKTNV-1">
          <mxGeometry x="680" y="500" width="100" height="60" as="geometry" />
        </mxCell>
        <mxCell id="3GEmFh6qiqjrI7cfLL0r-21" value="" style="edgeStyle=orthogonalEdgeStyle;rounded=0;orthogonalLoop=1;jettySize=auto;html=1;" edge="1" parent="WIyWlLk6GJQsqaUBKTNV-1" source="3GEmFh6qiqjrI7cfLL0r-19" target="3GEmFh6qiqjrI7cfLL0r-20">
          <mxGeometry relative="1" as="geometry" />
        </mxCell>
        <mxCell id="3GEmFh6qiqjrI7cfLL0r-19" value="用户手动登录" style="strokeWidth=2;html=1;shape=mxgraph.flowchart.terminator;whiteSpace=wrap;" vertex="1" parent="WIyWlLk6GJQsqaUBKTNV-1">
          <mxGeometry x="827" y="80" width="100" height="60" as="geometry" />
        </mxCell>
        <mxCell id="3GEmFh6qiqjrI7cfLL0r-23" value="" style="edgeStyle=orthogonalEdgeStyle;rounded=0;orthogonalLoop=1;jettySize=auto;html=1;" edge="1" parent="WIyWlLk6GJQsqaUBKTNV-1" source="3GEmFh6qiqjrI7cfLL0r-20" target="3GEmFh6qiqjrI7cfLL0r-22">
          <mxGeometry relative="1" as="geometry" />
        </mxCell>
        <mxCell id="3GEmFh6qiqjrI7cfLL0r-20" value="尝试使用API&lt;div&gt;进行使用账号密码的&lt;/div&gt;&lt;div&gt;登录&lt;/div&gt;" style="rounded=1;whiteSpace=wrap;html=1;strokeWidth=2;" vertex="1" parent="WIyWlLk6GJQsqaUBKTNV-1">
          <mxGeometry x="817" y="220" width="120" height="60" as="geometry" />
        </mxCell>
        <mxCell id="3GEmFh6qiqjrI7cfLL0r-25" value="N" style="edgeStyle=orthogonalEdgeStyle;rounded=0;orthogonalLoop=1;jettySize=auto;html=1;" edge="1" parent="WIyWlLk6GJQsqaUBKTNV-1" source="3GEmFh6qiqjrI7cfLL0r-22" target="3GEmFh6qiqjrI7cfLL0r-24">
          <mxGeometry relative="1" as="geometry" />
        </mxCell>
        <mxCell id="3GEmFh6qiqjrI7cfLL0r-29" value="" style="edgeStyle=orthogonalEdgeStyle;rounded=0;orthogonalLoop=1;jettySize=auto;html=1;" edge="1" parent="WIyWlLk6GJQsqaUBKTNV-1" source="3GEmFh6qiqjrI7cfLL0r-22" target="3GEmFh6qiqjrI7cfLL0r-28">
          <mxGeometry relative="1" as="geometry" />
        </mxCell>
        <mxCell id="3GEmFh6qiqjrI7cfLL0r-22" value="登录是否成功" style="rhombus;whiteSpace=wrap;html=1;rounded=1;strokeWidth=2;" vertex="1" parent="WIyWlLk6GJQsqaUBKTNV-1">
          <mxGeometry x="1020" y="210" width="80" height="80" as="geometry" />
        </mxCell>
        <mxCell id="3GEmFh6qiqjrI7cfLL0r-27" value="" style="edgeStyle=orthogonalEdgeStyle;rounded=0;orthogonalLoop=1;jettySize=auto;html=1;" edge="1" parent="WIyWlLk6GJQsqaUBKTNV-1" source="3GEmFh6qiqjrI7cfLL0r-24" target="3GEmFh6qiqjrI7cfLL0r-26">
          <mxGeometry relative="1" as="geometry" />
        </mxCell>
        <mxCell id="3GEmFh6qiqjrI7cfLL0r-24" value="&lt;div&gt;错误信息弹窗&lt;/div&gt;删除无效的token" style="whiteSpace=wrap;html=1;rounded=1;strokeWidth=2;" vertex="1" parent="WIyWlLk6GJQsqaUBKTNV-1">
          <mxGeometry x="1160" y="220" width="120" height="60" as="geometry" />
        </mxCell>
        <mxCell id="3GEmFh6qiqjrI7cfLL0r-26" value="保持未登录状态" style="strokeWidth=2;html=1;shape=mxgraph.flowchart.terminator;whiteSpace=wrap;" vertex="1" parent="WIyWlLk6GJQsqaUBKTNV-1">
          <mxGeometry x="1170" y="350" width="100" height="60" as="geometry" />
        </mxCell>
        <mxCell id="3GEmFh6qiqjrI7cfLL0r-31" value="" style="edgeStyle=orthogonalEdgeStyle;rounded=0;orthogonalLoop=1;jettySize=auto;html=1;" edge="1" parent="WIyWlLk6GJQsqaUBKTNV-1" source="3GEmFh6qiqjrI7cfLL0r-28" target="3GEmFh6qiqjrI7cfLL0r-30">
          <mxGeometry relative="1" as="geometry" />
        </mxCell>
        <mxCell id="3GEmFh6qiqjrI7cfLL0r-28" value="更新和记录当前用户状态" style="whiteSpace=wrap;html=1;rounded=1;strokeWidth=2;" vertex="1" parent="WIyWlLk6GJQsqaUBKTNV-1">
          <mxGeometry x="1000" y="350" width="120" height="60" as="geometry" />
        </mxCell>
        <mxCell id="3GEmFh6qiqjrI7cfLL0r-33" value="" style="edgeStyle=orthogonalEdgeStyle;rounded=0;orthogonalLoop=1;jettySize=auto;html=1;" edge="1" parent="WIyWlLk6GJQsqaUBKTNV-1" source="3GEmFh6qiqjrI7cfLL0r-30" target="3GEmFh6qiqjrI7cfLL0r-32">
          <mxGeometry relative="1" as="geometry" />
        </mxCell>
        <mxCell id="3GEmFh6qiqjrI7cfLL0r-30" value="在cookies中记录&lt;div&gt;用户的token&lt;/div&gt;" style="rounded=1;whiteSpace=wrap;html=1;strokeWidth=2;" vertex="1" parent="WIyWlLk6GJQsqaUBKTNV-1">
          <mxGeometry x="817" y="350" width="120" height="60" as="geometry" />
        </mxCell>
        <mxCell id="3GEmFh6qiqjrI7cfLL0r-32" value="成功手动登录" style="strokeWidth=2;html=1;shape=mxgraph.flowchart.terminator;whiteSpace=wrap;" vertex="1" parent="WIyWlLk6GJQsqaUBKTNV-1">
          <mxGeometry x="827" y="470" width="100" height="60" as="geometry" />
        </mxCell>
      </root>
    </mxGraphModel>
  </diagram>
</mxfile>
